<?xml version="1.0" encoding="UTF-8"?>
<!DOCTYPE svg PUBLIC "-//W3C//DTD SVG 1.1//EN" "http://www.w3.org/Graphics/SVG/1.1/DTD/svg11.dtd">
<svg xmlns="http://www.w3.org/2000/svg" version="1.1" width="512px" height="512px" style="shape-rendering:geometricPrecision; text-rendering:geometricPrecision; image-rendering:optimizeQuality; fill-rule:evenodd; clip-rule:evenodd" xmlns:xlink="http://www.w3.org/1999/xlink">
<g><path style="opacity:0.99" fill="#c67b4d" d="M 149.5,52.5 C 159.623,52.589 169.623,53.7557 179.5,56C 221.408,70.1237 254.074,95.9571 277.5,133.5C 249.137,154.723 226.47,180.89 209.5,212C 205.358,211.587 202.025,209.587 199.5,206C 178.17,194.331 158.17,180.664 139.5,165C 124.563,151.285 114.063,134.785 108,115.5C 103.523,94.958 108.357,77.1247 122.5,62C 126.327,60.254 129.993,58.254 133.5,56C 138.979,54.8811 144.312,53.7145 149.5,52.5 Z"/></g>
<g><path style="opacity:0.989" fill="#c57b4d" d="M 70.5,95.5 C 72.0162,105.927 73.8495,116.594 76,127.5C 84.7614,152.939 99.2614,174.106 119.5,191C 123.814,195.644 128.48,199.978 133.5,204C 149.705,215.4 166.372,226.067 183.5,236C 187.095,239.05 190.595,242.216 194,245.5C 191.728,255.831 189.061,266.164 186,276.5C 180.045,306.175 180.045,335.842 186,365.5C 188.69,373.397 190.857,381.397 192.5,389.5C 171.528,387.676 152.195,381.176 134.5,370C 105.678,350.551 83.1781,325.384 67,294.5C 39.8574,242.35 34.524,188.017 51,131.5C 56.6675,118.949 63.1675,106.949 70.5,95.5 Z"/></g>
<g><path style="opacity:0.992" fill="#c57b4d" d="M 331.5,126.5 C 332.978,126.238 334.311,126.571 335.5,127.5C 324.036,139.756 316.202,154.089 312,170.5C 306.359,194.744 306.025,219.078 311,243.5C 316.868,265.971 323.201,288.305 330,310.5C 335.494,335.055 333.827,359.055 325,382.5C 305.598,413.277 277.765,425.777 241.5,420C 231.483,417.245 222.983,412.079 216,404.5C 215.163,402.156 213.829,400.156 212,398.5C 186.277,322.935 196.611,252.935 243,188.5C 265.991,158.584 295.491,137.917 331.5,126.5 Z"/></g>
<g><path style="opacity:0.99" fill="#c67b4d" d="M 383.5,135.5 C 396.855,133.486 409.189,135.986 420.5,143C 427.987,148.154 434.487,154.321 440,161.5C 463.124,196.927 472.791,235.927 469,278.5C 463.25,335.497 439.75,383.664 398.5,423C 378.122,441.138 354.455,452.805 327.5,458C 309.844,460.834 292.511,459.501 275.5,454C 273.336,453.086 271.336,451.919 269.5,450.5C 291.159,449.115 310.826,442.282 328.5,430C 347.688,413.81 359.854,393.31 365,368.5C 368.66,340.757 366.66,313.424 359,286.5C 350.357,264.262 344.69,241.262 342,217.5C 339.795,195.177 344.462,174.511 356,155.5C 363.694,146.615 372.86,139.949 383.5,135.5 Z"/></g>
</svg>
