<?xml version="1.0" encoding="UTF-8"?>
<!DOCTYPE svg PUBLIC "-//W3C//DTD SVG 1.1//EN" "http://www.w3.org/Graphics/SVG/1.1/DTD/svg11.dtd">
<svg xmlns="http://www.w3.org/2000/svg" version="1.1" width="512px" height="512px" style="shape-rendering:geometricPrecision; text-rendering:geometricPrecision; image-rendering:optimizeQuality; fill-rule:evenodd; clip-rule:evenodd" xmlns:xlink="http://www.w3.org/1999/xlink">
<g><path style="opacity:0.982" fill="#c67c4e" d="M 237.5,55.5 C 255.012,51.8566 268.845,57.1899 279,71.5C 284.703,85.6317 283.37,98.965 275,111.5C 263.028,122.754 249.195,125.587 233.5,120C 217.514,110.047 211.681,95.8803 216,77.5C 220.689,67.6456 227.855,60.3123 237.5,55.5 Z"/></g>
<g><path style="opacity:0.987" fill="#c67b4d" d="M 266.5,127.5 C 280.129,126.886 289.296,132.886 294,145.5C 301.063,177.913 307.563,210.413 313.5,243C 313.534,252.925 308.867,259.592 299.5,263C 287.882,264.73 276.215,266.064 264.5,267C 261.724,267.066 259.558,268.232 258,270.5C 259.357,298.814 260.69,327.147 262,355.5C 262.333,356.5 262.667,357.5 263,358.5C 272.295,347.638 274.795,335.305 270.5,321.5C 305.168,321.333 339.835,321.5 374.5,322C 382.879,336.472 389.713,351.639 395,367.5C 396.912,377.175 396.912,386.842 395,396.5C 390.128,408.188 381.295,414.188 368.5,414.5C 364.524,438.805 350.19,452.139 325.5,454.5C 300.476,452.374 285.809,439.041 281.5,414.5C 242.832,414.667 204.165,414.5 165.5,414C 164.584,413.626 163.75,413.126 163,412.5C 161.932,417.05 160.098,421.217 157.5,425C 153.335,427.101 149.502,426.601 146,423.5C 135.821,450.012 116.655,460.512 88.5,455C 66.1554,445.321 56.822,428.321 60.5,404C 59.3961,402.18 57.8961,400.68 56,399.5C 55.719,373.407 67.8857,355.573 92.5,346C 98.8333,345 105.167,344 111.5,343C 108.276,329.398 111.109,317.231 120,306.5C 125,302.5 130,298.5 135,294.5C 146.76,279.283 153.26,261.95 154.5,242.5C 132.812,246.123 121.812,237.123 121.5,215.5C 120.097,205.615 123.097,197.448 130.5,191C 133.167,190 135.833,189 138.5,188C 173.879,194.069 205.879,186.735 234.5,166C 238,162.5 241.5,159 245,155.5C 244.884,140.462 252.051,131.129 266.5,127.5 Z M 253.5,199.5 C 255.761,205.829 257.761,212.495 259.5,219.5C 259.281,220.938 258.781,222.271 258,223.5C 245.57,228.456 233.07,233.29 220.5,238C 216.667,240.5 213.5,243.667 211,247.5C 210.446,250.658 209.946,253.825 209.5,257C 213.454,293.477 217.121,329.977 220.5,366.5C 212.5,366.5 204.5,366.5 196.5,366.5C 196.5,318.167 196.5,269.833 196.5,221.5C 217.874,219.967 236.874,212.634 253.5,199.5 Z M 84.5,396.5 C 100.661,396.123 115.661,399.956 129.5,408C 131.537,427.816 122.537,438.983 102.5,441.5C 85.2544,439.755 75.9211,430.255 74.5,413C 74.1398,407.601 75.4731,402.768 78.5,398.5C 80.6568,397.95 82.6568,397.283 84.5,396.5 Z M 296.5,415.5 C 315.329,414.338 334.329,414.171 353.5,415C 349.584,429.419 340.25,437.586 325.5,439.5C 310.306,437.958 300.64,429.958 296.5,415.5 Z"/></g>
<g><path style="opacity:0.995" fill="#c67b4d" d="M 342.5,148.5 C 377.835,148.333 413.168,148.5 448.5,149C 450.392,149.973 452.392,150.64 454.5,151C 455.641,153.308 457.308,155.141 459.5,156.5C 460.236,158.541 461.069,160.541 462,162.5C 462.667,191.167 462.667,219.833 462,248.5C 459.5,255 455,259.5 448.5,262C 413.167,262.667 377.833,262.667 342.5,262C 333.221,259.026 328.388,252.526 328,242.5C 327.333,217.833 327.333,193.167 328,168.5C 328.554,161.478 331.387,155.644 336.5,151C 338.852,150.76 340.852,149.927 342.5,148.5 Z"/></g>
<g><path style="opacity:0.977" fill="#c67b4e" d="M 273.5,273.5 C 310.502,273.333 347.502,273.5 384.5,274C 386.492,274.574 387.992,275.741 389,277.5C 390.449,289.264 387.282,299.597 379.5,308.5C 342.506,309.5 305.506,309.833 268.5,309.5C 268.333,298.828 268.5,288.161 269,277.5C 270.397,275.93 271.897,274.596 273.5,273.5 Z"/></g>
</svg>
