<?xml version="1.0" encoding="UTF-8"?>
<!DOCTYPE svg PUBLIC "-//W3C//DTD SVG 1.1//EN" "http://www.w3.org/Graphics/SVG/1.1/DTD/svg11.dtd">
<svg xmlns="http://www.w3.org/2000/svg" version="1.1" width="371px" height="371px" style="shape-rendering:geometricPrecision; text-rendering:geometricPrecision; image-rendering:optimizeQuality; fill-rule:evenodd; clip-rule:evenodd" xmlns:xlink="http://www.w3.org/1999/xlink">
<g><path style="opacity:0.997" fill="#8d8d8d" d="M 174.5,-0.5 C 181.5,-0.5 188.5,-0.5 195.5,-0.5C 203.604,1.88268 211.271,5.38268 218.5,10C 244.688,30.6973 270.688,51.5306 296.5,72.5C 297.265,74.929 298.931,76.2623 301.5,76.5C 318.041,88.532 333.875,101.532 349,115.5C 353.898,122.026 356.731,129.359 357.5,137.5C 357.5,195.5 357.5,253.5 357.5,311.5C 351.981,341.852 333.981,359.685 303.5,365C 286.833,365.667 270.167,365.667 253.5,365C 245.318,362.664 239.818,357.497 237,349.5C 236.652,339.325 236.152,329.158 235.5,319C 236.512,307.511 236.678,296.011 236,284.5C 234.153,272.985 227.653,265.485 216.5,262C 195.5,261.333 174.5,261.333 153.5,262C 144.288,264.206 137.788,269.706 134,278.5C 133.486,301.155 132.819,323.821 132,346.5C 129.833,356.667 123.667,362.833 113.5,365C 97.5,365.667 81.5,365.667 65.5,365C 35.1231,359.623 16.9564,341.79 11,311.5C 10.3333,253.5 10.3333,195.5 11,137.5C 12.3598,128.785 15.8598,121.119 21.5,114.5C 23.8333,114.167 25.1667,112.833 25.5,110.5C 30.8821,105.783 36.5487,101.45 42.5,97.5C 44.7488,96.9202 46.4154,95.5869 47.5,93.5C 47.8333,92.5 48.5,91.8333 49.5,91.5C 51.0269,91.573 52.0269,90.9063 52.5,89.5C 54.2344,86.7997 56.5677,84.7997 59.5,83.5C 61.0269,83.573 62.0269,82.9063 62.5,81.5C 69.5181,75.1518 76.8515,69.1518 84.5,63.5C 86.0269,63.573 87.0269,62.9063 87.5,61.5C 109.247,43.446 131.247,25.6127 153.5,8C 160.187,4.05686 167.187,1.22353 174.5,-0.5 Z"/></g>
<g><path style="opacity:0.231" fill="#cacaca" d="M 87.5,61.5 C 87.0269,62.9063 86.0269,63.573 84.5,63.5C 84.9731,62.0937 85.9731,61.427 87.5,61.5 Z"/></g>
<g><path style="opacity:0.533" fill="#b7b7b7" d="M 296.5,72.5 C 298.754,73.1237 300.421,74.457 301.5,76.5C 298.931,76.2623 297.265,74.929 296.5,72.5 Z"/></g>
<g><path style="opacity:0.212" fill="#c7c7c7" d="M 62.5,81.5 C 62.0269,82.9063 61.0269,83.573 59.5,83.5C 59.9731,82.0937 60.9731,81.427 62.5,81.5 Z"/></g>
<g><path style="opacity:0.216" fill="#c7c7c7" d="M 52.5,89.5 C 52.0269,90.9063 51.0269,91.573 49.5,91.5C 49.9731,90.0937 50.9731,89.427 52.5,89.5 Z"/></g>
<g><path style="opacity:0.478" fill="#b6b6b6" d="M 47.5,93.5 C 46.4154,95.5869 44.7488,96.9202 42.5,97.5C 43.5846,95.4131 45.2512,94.0798 47.5,93.5 Z"/></g>
<g><path style="opacity:0.184" fill="#c9c9c9" d="M 25.5,110.5 C 25.1667,112.833 23.8333,114.167 21.5,114.5C 22.5,112.833 23.8333,111.5 25.5,110.5 Z"/></g>
<g><path style="opacity:0.352" fill="#cbcbcb" d="M 357.5,137.5 C 358.951,168.654 359.617,199.988 359.5,231.5C 359.7,258.351 359.033,285.018 357.5,311.5C 357.5,253.5 357.5,195.5 357.5,137.5 Z"/></g>
</svg>
