<?xml version="1.0" encoding="UTF-8"?>
<!DOCTYPE svg PUBLIC "-//W3C//DTD SVG 1.1//EN" "http://www.w3.org/Graphics/SVG/1.1/DTD/svg11.dtd">
<svg xmlns="http://www.w3.org/2000/svg" version="1.1" width="512px" height="512px" style="shape-rendering:geometricPrecision; text-rendering:geometricPrecision; image-rendering:optimizeQuality; fill-rule:evenodd; clip-rule:evenodd" xmlns:xlink="http://www.w3.org/1999/xlink">
<g><path style="opacity:0.968" fill="#c57b4d" d="M 166.5,41.5 C 225.833,41.5 285.167,41.5 344.5,41.5C 344.5,50.1667 344.5,58.8333 344.5,67.5C 285.167,67.5 225.833,67.5 166.5,67.5C 166.5,58.8333 166.5,50.1667 166.5,41.5 Z"/></g>
<g><path style="opacity:0.983" fill="#c67c4e" d="M 159.5,91.5 C 216.504,91.1667 273.504,91.5 330.5,92.5C 316.942,109.132 303.276,125.632 289.5,142C 232.497,142.833 175.497,142.667 118.5,141.5C 132.19,124.814 145.857,108.148 159.5,91.5 Z"/></g>
<g><path style="opacity:0.98" fill="#c57b4e" d="M 355.5,98.5 C 357.371,98.8588 358.871,99.8588 360,101.5C 370.644,114.978 381.477,128.312 392.5,141.5C 368.509,142.5 344.509,142.833 320.5,142.5C 320.351,141.448 320.517,140.448 321,139.5C 332.711,125.96 344.211,112.294 355.5,98.5 Z"/></g>
<g><path style="opacity:0.987" fill="#c57b4d" d="M 104.5,166.5 C 163.5,166.5 222.5,166.5 281.5,166.5C 281.5,183.833 281.5,201.167 281.5,218.5C 254.968,219.893 230.634,227.726 208.5,242C 190.486,254.994 172.153,267.661 153.5,280C 138.008,287.328 121.675,291.495 104.5,292.5C 104.5,250.5 104.5,208.5 104.5,166.5 Z"/></g>
<g><path style="opacity:0.995" fill="#c67c4e" d="M 305.5,166.5 C 339.167,166.5 372.833,166.5 406.5,166.5C 406.5,264.5 406.5,362.5 406.5,460.5C 394.899,464.9 382.899,467.733 370.5,469C 348.836,469.5 327.169,469.667 305.5,469.5C 305.5,368.5 305.5,267.5 305.5,166.5 Z"/></g>
<g><path style="opacity:0.994" fill="#c67b4e" d="M 276.5,241.5 C 278.167,241.5 279.833,241.5 281.5,241.5C 281.5,317.5 281.5,393.5 281.5,469.5C 234.499,469.667 187.499,469.5 140.5,469C 128.298,468.033 116.632,465.033 105.5,460C 104.503,411.905 104.169,363.739 104.5,315.5C 121.704,314.532 138.37,311.032 154.5,305C 160.923,301.857 167.256,298.524 173.5,295C 191.912,281.581 210.578,268.581 229.5,256C 237.652,252.212 245.986,248.879 254.5,246C 262.03,244.795 269.363,243.295 276.5,241.5 Z"/></g>
</svg>
